<svg width="84" height="87" viewBox="0 0 84 87" fill="none" xmlns="http://www.w3.org/2000/svg">
<path d="M30.5642 21.2238C30.2251 20.8503 29.9449 20.5931 29.7286 20.2875C29.0012 19.2686 28.2245 18.2789 27.6052 17.2019C26.3174 14.975 25.8357 12.5346 25.9045 9.98755C25.9192 9.3908 26.0421 8.79406 26.1306 8.19731C26.3567 6.72728 27.2857 4.971 28.0132 4.10257C28.544 3.46701 29.242 2.97215 29.8663 2.40936C30.6035 1.7447 31.5571 1.51182 32.4517 1.17221C33.8919 0.62883 35.4009 0.594868 36.9148 0.769525C37.4998 0.837448 38.0847 0.905371 38.6549 1.01696C39.0776 1.09943 39.5052 1.22072 39.8935 1.40023C40.5374 1.69618 41.1469 2.0649 41.781 2.38025C41.899 2.43847 42.13 2.44818 42.2234 2.38025C43.1475 1.66707 44.2682 1.38083 45.3299 0.96844C45.7231 0.81319 46.1901 0.813191 46.6226 0.784081C47.3452 0.735565 48.0677 0.696753 48.7903 0.696753C50.1224 0.696753 51.3758 1.03151 52.5849 1.57974C53.8187 2.13767 54.8902 2.90908 55.7652 3.92791C56.3796 4.6411 56.8809 5.42705 57.2889 6.29064C57.8345 7.45017 58.1983 8.65821 58.1737 9.92933C58.1491 11.0937 58.0705 12.2581 57.8394 13.4176C57.633 14.451 57.2742 15.4068 56.8465 16.3577C56.4976 17.1291 56.1682 17.9199 55.7406 18.6525C55.4801 19.0988 55.0475 19.4433 54.7035 19.8411C54.3545 20.2487 54.0153 20.6708 53.6319 21.1365C54.2906 21.1996 54.8853 21.2481 55.4801 21.3209C56.3108 21.4227 57.1415 21.5295 57.9672 21.6556C58.9454 21.806 59.9235 21.9516 60.8869 22.1505C61.58 22.296 62.2682 22.4901 62.9317 22.7278C64.0229 23.1257 65.1043 23.5429 66.1562 24.0183C66.6674 24.2512 67.1343 24.6005 67.5718 24.9547C68.2108 25.4738 68.8842 25.9832 69.4052 26.6091C70.0983 27.4436 70.7127 28.3557 71.2534 29.292C71.9219 30.4419 72.3495 31.7033 72.6346 32.9986C72.9 34.197 73.2048 35.3905 73.3424 36.6082C73.5489 38.4179 73.6324 40.2421 73.7406 42.0614C73.7848 42.7697 73.775 43.4781 73.7553 44.1913C73.7455 44.5212 73.888 44.657 74.1879 44.7492C75.3085 45.1131 76.3211 45.6807 77.3337 46.2726C78.6805 47.0586 79.7569 48.1259 80.7253 49.2951C81.148 49.8046 81.438 50.4159 81.7575 51.0029C82.3719 52.1236 82.8438 53.2929 83.0699 54.5543C83.2911 55.7866 83.6056 57.0092 83.758 58.2512C83.9006 59.3767 83.9104 60.5266 83.93 61.6618C83.9694 63.9566 84.0234 66.2514 83.989 68.5414C83.9645 70.1812 83.8514 71.8259 83.6843 73.4609C83.5958 74.3536 83.296 75.222 83.1239 76.1099C82.8929 77.284 82.3522 78.3271 81.7378 79.3216C80.9956 80.52 80.1157 81.6116 78.8869 82.4024C77.6827 83.1738 76.4489 83.8773 75.0775 84.2994C74.0404 84.6147 72.9934 84.901 71.9514 85.1872C70.3342 85.6239 68.6728 85.8325 67.0065 85.9829C65.6696 86.1042 64.3277 86.2157 62.9858 86.3031C61.467 86.4001 59.9481 86.4777 58.4293 86.5408C49.4539 86.9095 40.4735 86.7834 31.4981 86.7203C30.4364 86.7106 29.3747 86.7203 28.313 86.6912C26.3813 86.6281 24.4446 86.5942 22.5178 86.4535C20.0798 86.274 17.6467 86.0362 15.2185 85.7597C14.0094 85.619 12.8051 85.3716 11.6156 85.0999C10.5883 84.8622 9.57082 84.5759 8.58284 84.2169C6.8723 83.5959 5.32888 82.6935 4.00174 81.4321C2.59104 80.0882 1.58831 78.4969 1.06237 76.6533C0.698634 75.3821 0.443037 74.0722 0.290661 72.7574C-0.16155 68.8519 0.0399797 64.9221 0.0743871 61.0069C0.0891331 59.367 0.403715 57.7272 0.600328 56.0922C0.806772 54.3651 1.36221 52.7349 2.14374 51.1776C2.85647 49.7657 3.83953 48.548 5.03888 47.5049C6.42992 46.2968 8.00774 45.3993 9.75269 44.7832C9.98862 44.7007 10.1312 44.5745 10.1312 44.2689C10.1312 42.9978 10.1312 41.7267 10.2246 40.4604C10.3278 39.0049 10.5342 37.5543 10.6866 36.0988C10.721 35.7543 10.662 35.4002 10.7112 35.0606C10.7554 34.7452 10.9029 34.4396 10.9717 34.1242C11.0651 33.6633 11.1093 33.1927 11.2125 32.7318C11.2666 32.4892 11.4288 32.2709 11.5124 32.0283C12.1366 30.2429 12.9182 28.5449 14.1617 27.0797C15.5675 25.4205 17.2977 24.1833 19.3081 23.3585C20.2813 22.9559 21.3185 22.6939 22.336 22.3979C23.0683 22.1844 23.8106 22.0001 24.5626 21.8594C25.236 21.7332 25.9192 21.6896 26.5975 21.5974C26.9515 21.5489 27.3004 21.4664 27.6494 21.4082C27.7772 21.3839 27.9099 21.3742 28.0427 21.3694C28.8389 21.3306 29.6352 21.2966 30.5593 21.2529L30.5642 21.2238ZM77.5696 62.8941C77.5696 62.8941 77.604 62.8941 77.6237 62.8941C77.5254 61.7104 77.4074 60.5266 77.3435 59.3379C77.2599 57.8485 76.9994 56.3979 76.5128 54.9812C75.8886 53.1618 74.6597 51.8956 72.9 51.0999C71.2141 50.3334 69.4249 49.9064 67.6111 49.5862C66.5494 49.397 65.473 49.2515 64.4014 49.1399C62.9514 48.9846 61.5014 48.8536 60.0464 48.7566C59.0191 48.6887 57.982 48.7032 56.9547 48.6596C55.9569 48.6208 54.9541 48.5383 53.9563 48.5043C52.521 48.4607 51.0858 48.4218 49.6505 48.417C44.1748 48.417 38.6942 48.3976 33.2185 48.4461C30.3578 48.4704 27.502 48.582 24.6462 48.7275C22.7538 48.8245 20.8663 49.0283 18.9837 49.2224C17.9416 49.3291 16.8996 49.4795 15.8723 49.6736C14.9777 49.8434 14.1077 50.1151 13.2229 50.3285C12.3087 50.5468 11.4583 50.9204 10.6325 51.3619C9.4037 52.0169 8.43046 52.929 7.85045 54.1807C7.064 55.8787 6.73958 57.6932 6.67077 59.5563C6.65111 60.0948 6.53805 60.6284 6.52822 61.167C6.50365 62.506 6.51348 63.8499 6.52331 65.1889C6.52331 65.3297 6.59212 65.5092 6.69535 65.5965C7.18688 66.0137 7.6735 66.4407 8.20435 66.8045C9.24149 67.5129 10.4359 67.7651 11.6648 67.605C13.2426 67.3964 14.5206 66.5668 15.5577 65.3976C16.5113 64.3205 17.3665 63.161 18.4774 62.2198C19.5539 61.3028 20.7385 60.5411 22.0361 60.0074C22.97 59.6242 24.0023 59.4786 25.0001 59.2554C26.5681 58.9061 28.1164 59.1633 29.6254 59.5659C30.9427 59.9153 32.1568 60.4975 33.2972 61.2737C34.3146 61.9675 35.2387 62.734 36.0448 63.6461C37.0525 64.7814 37.8979 66.0331 39.2939 66.8288C40.9159 67.7554 42.5036 67.867 44.1895 67.149C45.3447 66.6541 46.2147 65.81 46.9962 64.8736C47.935 63.7529 48.9132 62.6807 50.0535 61.7492C51.0366 60.9438 52.1524 60.3907 53.3222 59.9395C53.9711 59.6872 54.669 59.5757 55.3424 59.3913C57.1759 58.8867 58.9798 59.1148 60.7739 59.6096C62.2288 60.0123 63.5412 60.7109 64.7652 61.5648C65.8367 62.312 66.7755 63.2144 67.5669 64.2477C68.5549 65.5383 69.6313 66.7075 71.2288 67.2994C72.4282 67.7409 73.6128 67.736 74.7974 67.3236C75.7804 66.984 76.616 66.4018 77.3435 65.6741C77.4762 65.5431 77.5696 65.3102 77.5745 65.121C77.5991 64.3787 77.5844 63.6316 77.5844 62.8893L77.5696 62.8941ZM16.5899 43.0705C17.2584 42.9832 17.8286 42.891 18.4086 42.8328C19.5244 42.7212 20.6402 42.6145 21.7559 42.5223C22.8865 42.4301 24.0219 42.3477 25.1574 42.2943C26.6713 42.2215 28.1852 42.1827 29.6991 42.1342C30.8641 42.1002 32.0339 42.0614 33.1988 42.0517C36.2414 42.0226 39.2791 41.9741 42.3217 41.9983C46.9618 42.042 51.6019 42.1342 56.242 42.2215C57.2594 42.2409 58.272 42.3088 59.2895 42.3719C60.5134 42.4447 61.7422 42.5126 62.9612 42.6193C64.3031 42.7358 65.645 42.8862 66.9869 43.0414C67.2474 43.0705 67.331 42.9978 67.3211 42.7697C67.3015 42.401 67.272 42.0372 67.2425 41.6684C67.1294 40.1644 67.0852 38.6556 66.8837 37.1662C66.7215 35.9533 66.4216 34.7501 66.0874 33.5663C65.7089 32.2272 65.0552 31.0046 63.8755 30.1896C63.1234 29.6705 62.2583 29.3017 61.4227 28.9185C60.9607 28.705 60.4642 28.54 59.9678 28.443C58.9159 28.2441 57.8591 28.084 56.7974 27.9433C55.4653 27.7735 54.1284 27.5794 52.7914 27.5018C50.6483 27.3854 48.4954 27.3029 46.3474 27.298C42.5822 27.2883 38.822 27.3514 35.0568 27.3805C34.6243 27.3805 34.1967 27.3708 33.7641 27.3902C32.7417 27.4387 31.7242 27.4969 30.7068 27.5697C29.7532 27.6376 28.7898 27.6813 27.846 27.8074C26.8089 27.9433 25.7865 28.1568 24.7592 28.346C23.6287 28.5546 22.5375 28.8699 21.4856 29.3551C19.3818 30.3303 18.2316 32.0235 17.6565 34.1679C17.4796 34.818 17.3174 35.4778 17.1847 36.1376C17.0765 36.6713 16.9881 37.2147 16.934 37.7581C16.8504 38.6313 16.8062 39.5046 16.7521 40.3779C16.6981 41.2318 16.6489 42.0905 16.5948 43.0657L16.5899 43.0705ZM77.1272 73.3493C76.965 73.3881 76.8421 73.4124 76.7143 73.4464C76.3064 73.5579 75.9082 73.7132 75.4904 73.7714C74.6745 73.883 73.8487 73.9752 73.0229 73.9994C71.622 74.0431 70.2654 73.786 68.9579 73.296C67.8127 72.869 66.7165 72.3305 65.7875 71.5397C64.9028 70.7828 64.0229 70.0066 63.2561 69.1381C62.2682 68.0271 61.3883 66.8482 59.9924 66.1544C58.7783 65.548 57.515 65.3733 56.237 65.679C54.8116 66.0186 53.6712 66.8919 52.7619 68.0174C51.6314 69.4098 50.4664 70.744 48.9623 71.7823C47.0699 73.0873 44.9907 73.8587 42.7051 73.9994C40.2818 74.1498 38.0159 73.5773 35.9219 72.3256C34.1623 71.2728 32.7466 69.861 31.4981 68.2843C30.5052 67.0326 29.3354 66.0816 27.7625 65.6984C26.4648 65.383 25.2065 65.5286 24.0219 66.1593C22.9209 66.7463 22.0361 67.5808 21.2988 68.5754C20.2617 69.9775 19.0034 71.1613 17.5238 72.0782C15.8575 73.1068 14.0585 73.8345 12.0678 73.9703C10.6325 74.0674 9.20708 74.014 7.82587 73.5531C7.5457 73.4609 7.24586 73.4269 6.90179 73.3493C6.94603 73.5968 6.9706 73.7617 7.0001 73.9267C7.354 75.6878 8.26334 77.0559 9.9493 77.8031C10.8537 78.2058 11.7975 78.526 12.756 78.7831C13.8029 79.0596 14.8745 79.2586 15.946 79.4138C17.0716 79.5788 18.212 79.6515 19.3474 79.7534C20.5222 79.8602 21.692 79.9766 22.8717 80.0591C23.5599 80.1076 24.2578 80.0833 24.946 80.1076C26.573 80.161 28.195 80.2677 29.822 80.2774C36.3742 80.3162 42.9263 80.3599 49.4834 80.3308C52.8799 80.3162 56.2764 80.1658 59.6729 80.0639C61.0246 80.0203 62.3714 79.9426 63.7231 79.8699C64.4457 79.8311 65.1731 79.8213 65.8908 79.7243C67.1835 79.5497 68.4664 79.3168 69.7591 79.1179C71.3664 78.8704 72.8902 78.3804 74.3451 77.6769C75.0726 77.3228 75.6821 76.8231 76.1392 76.1487C76.6996 75.3142 76.9601 74.3827 77.1371 73.3493H77.1272ZM35.7352 6.97956C35.2436 7.08145 34.816 7.12511 34.4228 7.2561C33.5134 7.5569 32.9039 8.21672 32.5648 9.0706C32.1421 10.1282 32.3141 11.2344 32.55 12.3018C32.9924 14.3006 34.2114 15.8677 35.6614 17.2358C36.5855 18.1043 37.6423 18.8417 38.6893 19.5743C39.4118 20.074 40.1295 20.6368 41.0437 20.7726C41.9924 20.9133 42.9558 20.991 43.816 20.4621C44.8384 19.8314 45.846 19.1716 46.8389 18.4924C48.5888 17.2892 49.9995 15.7852 50.9186 13.8688C51.5232 12.6074 51.7837 11.2684 51.6461 9.87111C51.5527 8.94446 51.1202 8.20216 50.3337 7.63453C49.4883 7.02808 48.5347 7.02323 47.5762 7.09115C47.1387 7.12026 46.6865 7.24155 46.2884 7.42106C45.5855 7.73641 45.1185 8.34286 44.6614 8.9299C44.16 9.58001 43.5211 10.0215 42.7248 10.1865C41.3681 10.463 40.2769 10.0555 39.3774 8.89594C38.9105 8.29434 38.4288 7.68304 37.6915 7.42106C37.0525 7.19303 36.3594 7.12026 35.7401 6.98441L35.7352 6.97956Z" fill="#2BA0AF"/>
</svg>
