<svg width="77" height="83" viewBox="0 0 77 83" fill="none" xmlns="http://www.w3.org/2000/svg">
<path d="M72.4478 15.3252H59.9182C61.0277 13.8423 61.8069 12.1414 62.1987 10.3358C62.661 8.13328 62.1767 5.83483 60.8648 3.99869C57.4 -0.5197 48.4849 -0.14026 42.7969 3.23545C41.1415 4.19931 39.6843 5.46411 38.5044 6.96007C37.3642 5.4772 35.9597 4.2124 34.3572 3.23545C29.9019 0.566283 24.5 -0.0530332 19.5472 1.53451C18.0327 2.14946 17.3107 3.86349 17.9314 5.3638C18.5522 6.86411 20.2824 7.57938 21.7969 6.96443C24.9975 6.1314 28.4006 6.60679 31.2447 8.28592C33.4283 9.55945 34.956 11.6922 35.4491 14.152V15.238H25.2925C23.6635 14.1607 22.3296 12.6996 21.4138 10.9856C20.6786 9.53328 18.8956 8.94885 17.4296 9.68157C15.9635 10.4099 15.3736 12.1763 16.1132 13.6286C16.395 14.2174 16.7208 14.7887 17.0906 15.3296H4.56101C2.04277 15.3296 0 17.3532 0 19.8479V28.4137C0 30.2978 1.18428 31.9769 2.96289 32.6399V74.0119C2.96289 78.8748 6.94277 82.8132 11.8472 82.8132H65.1572C70.066 82.8132 74.0415 78.8705 74.0415 74.0119V41.0617C74.0415 39.4393 72.7163 38.1265 71.0786 38.1265C69.4409 38.1265 68.1157 39.4393 68.1157 41.0617V74.0119C68.1157 75.6343 66.7906 76.9471 65.1528 76.9471H11.8428C10.205 76.9471 8.87987 75.6343 8.87987 74.0119V32.9364H72.439C74.9572 32.9364 77 30.9128 77 28.4181V19.8523C77 17.3576 74.9572 15.3339 72.439 15.3339L72.4478 15.3252ZM45.7906 8.28156C49.6428 5.99184 55.0314 6.14013 56.066 7.54885C56.4006 8.12892 56.4755 8.81801 56.273 9.45477C55.5553 11.8884 53.966 13.9732 51.8 15.3208H41.4629V14.2348C41.9384 11.7358 43.4836 9.56381 45.6981 8.2772H45.7862L45.7906 8.28156ZM71.083 27.0617H5.93019V21.1956H71.0874V27.0617H71.083Z" fill="#2BA0AF"/>
<path d="M39.1162 72.9956C31.0508 72.9782 24.4162 68.1676 22.2502 61.2112C21.7967 59.7545 22.3558 58.3894 23.659 57.7831C24.8829 57.2118 26.3489 57.6217 27.093 58.7557C27.247 58.9912 27.3615 59.266 27.454 59.5364C29.2546 64.8834 34.2074 68.1588 39.8338 67.4785C44.5181 66.9115 47.7055 64.2859 49.4181 59.9158C49.6074 59.4317 49.7923 58.9171 50.1093 58.5115C50.915 57.4865 52.337 57.2467 53.4904 57.8573C54.6483 58.4722 55.1986 59.785 54.7892 61.0716C53.5961 64.8442 51.3552 67.8623 48.0577 70.0866C45.1785 72.0317 41.9779 72.9738 39.1118 72.9956H39.1162Z" fill="#2BA0AF"/>
<path d="M27.6967 46.3038C27.6967 44.424 27.6395 42.5399 27.7143 40.6645C27.7936 38.6496 30.0168 37.4894 31.7734 38.4969C32.7332 39.0464 33.1514 39.91 33.147 40.996C33.1382 43.7567 33.147 42.4614 33.147 45.2221C33.147 46.0857 33.169 46.9493 33.125 47.8128C33.0678 48.9337 32.4646 49.7405 31.4256 50.1418C30.369 50.5518 29.3697 50.3642 28.5244 49.5835C27.9124 49.0209 27.6791 48.2969 27.6835 47.477C27.6923 45.7324 27.6835 43.9879 27.6835 42.2433C27.6879 42.2433 27.6923 46.2994 27.6967 46.2994V46.3038Z" fill="#2BA0AF"/>
<path d="M49.5591 46.2513C49.5591 48.1136 49.6075 45.9242 49.5459 47.7822C49.4886 49.6314 47.6352 50.8003 45.8786 50.1722C44.7955 49.7841 44.122 48.7897 44.1132 47.5118C44.0999 45.3442 44.1088 47.2326 44.1088 45.065C44.1088 43.6083 44.0823 42.1516 44.1308 40.6949C44.1704 39.5305 44.8044 38.7192 45.9006 38.3136C46.9792 37.9124 47.9565 38.1566 48.7842 38.9417C49.3742 39.5043 49.5811 40.2195 49.5767 41.0177C49.5679 42.7622 49.5767 44.5068 49.5767 46.2513H49.5679H49.5591Z" fill="#2BA0AF"/>
</svg>
