<svg width="73" height="77" viewBox="0 0 73 77" fill="none" xmlns="http://www.w3.org/2000/svg">
<path d="M58.4 29.6606H40.15V18.7721H32.85V29.6606H14.6C10.7278 29.6606 7.01427 31.1901 4.27624 33.9128C1.53821 36.6354 0 40.3281 0 44.1785V76.8438H73V44.1785C73 40.3281 71.4618 36.6354 68.7238 33.9128C65.9857 31.1901 62.2722 29.6606 58.4 29.6606ZM65.7 69.5848H7.3V58.6964C9.1856 58.6243 11.0363 58.1684 12.7376 57.3569C14.439 56.5453 15.9549 55.3953 17.1915 53.9781C17.7022 53.1992 18.4003 52.5593 19.2225 52.1164C20.0446 51.6735 20.9649 51.4415 21.9 51.4415C22.8351 51.4415 23.7554 51.6735 24.5775 52.1164C25.3997 52.5593 26.0978 53.1992 26.6085 53.9781C27.8028 55.4416 29.3106 56.6217 31.0218 57.4322C32.733 58.2428 34.6046 58.6634 36.5 58.6634C38.3954 58.6634 40.267 58.2428 41.9782 57.4322C43.6894 56.6217 45.1972 55.4416 46.3915 53.9781C46.9022 53.1992 47.6003 52.5593 48.4225 52.1164C49.2446 51.6735 50.1649 51.4415 51.1 51.4415C52.0351 51.4415 52.9554 51.6735 53.7775 52.1164C54.5997 52.5593 55.2978 53.1992 55.8085 53.9781C57.0451 55.3953 58.561 56.5453 60.2624 57.3569C61.9637 58.1684 63.8144 58.6243 65.7 58.6964V69.5848ZM65.7 51.4374C63.8634 51.2145 62.1805 50.3064 60.9915 48.8968C59.7972 47.4332 58.2894 46.2532 56.5782 45.4426C54.867 44.6321 52.9954 44.2115 51.1 44.2115C49.2046 44.2115 47.333 44.6321 45.6218 45.4426C43.9106 46.2532 42.4028 47.4332 41.2085 48.8968C40.6978 49.6757 39.9997 50.3155 39.1775 50.7584C38.3554 51.2014 37.4351 51.4333 36.5 51.4333C35.5649 51.4333 34.6446 51.2014 33.8225 50.7584C33.0003 50.3155 32.3022 49.6757 31.7915 48.8968C30.5972 47.4332 29.0894 46.2532 27.3782 45.4426C25.667 44.6321 23.7954 44.2115 21.9 44.2115C20.0046 44.2115 18.133 44.6321 16.4218 45.4426C14.7106 46.2532 13.2028 47.4332 12.0085 48.8968C10.8195 50.3064 9.13657 51.2145 7.3 51.4374V44.1785C7.3 42.2533 8.06911 40.4069 9.43812 39.0456C10.8071 37.6843 12.6639 36.9195 14.6 36.9195H58.4C60.3361 36.9195 62.1929 37.6843 63.5619 39.0456C64.9309 40.4069 65.7 42.2533 65.7 44.1785V51.4374ZM36.5 15.8323C38.0005 15.8323 39.4395 15.2396 40.5005 14.1845C41.5614 13.1295 42.1575 11.6986 42.1575 10.2066C42.1575 5.70602 36.5 0.624756 36.5 0.624756C36.5 0.624756 30.8425 5.70602 30.8425 10.2066C30.8425 11.6986 31.4386 13.1295 32.4995 14.1845C33.5605 15.2396 34.9995 15.8323 36.5 15.8323Z" fill="#2BA0AF"/>
</svg>
