<svg width="58" height="58" viewBox="0 0 58 58" fill="none" xmlns="http://www.w3.org/2000/svg">
<path d="M53.002 57.3112H36.7432C35.6014 57.3074 34.5075 56.8523 33.7001 56.0451C32.8928 55.2378 32.4376 54.1441 32.4338 53.0025V36.7464C32.4382 35.605 32.8936 34.512 33.7009 33.7049C34.5081 32.8977 35.6016 32.4421 36.7432 32.4377H53.002C54.1436 32.4421 55.2371 32.8977 56.0444 33.7049C56.8516 34.512 57.3071 35.605 57.3115 36.7464V53.0025C57.3076 54.1441 56.8524 55.2378 56.0451 56.0451C55.2377 56.8523 54.1438 57.3074 53.002 57.3112ZM21.2572 57.3112H4.99865C3.85664 57.3081 2.76216 56.8534 1.95463 56.046C1.14711 55.2386 0.692067 54.1443 0.688965 53.0025V36.7464C0.692324 35.6047 1.14764 34.5107 1.95511 33.7034C2.76258 32.8961 3.85672 32.4411 4.99865 32.4377H21.2524C22.3941 32.4421 23.4875 32.8977 24.2948 33.7049C25.102 34.512 25.5575 35.605 25.5619 36.7464V53.0025C25.5573 54.1439 25.1017 55.237 24.2945 56.0441C23.4874 56.8512 22.394 57.3066 21.2524 57.3112H21.2572ZM53.002 25.5622H36.7432C35.6015 25.5581 34.5079 25.1027 33.7006 24.2956C32.8933 23.4884 32.4379 22.395 32.4338 21.2535V4.99744C32.4371 3.8557 32.8922 2.76175 33.6997 1.95442C34.5071 1.14708 35.6013 0.692079 36.7432 0.688721H53.002C54.144 0.692079 55.2381 1.14708 56.0456 1.95442C56.853 2.76175 57.3081 3.8557 57.3115 4.99744V21.2535C57.3073 22.395 56.8522 23.4884 56.0448 24.2956C55.2375 25.1027 54.1437 25.5581 53.002 25.5622ZM21.2572 25.5622H4.99865C3.85672 25.5589 2.76258 25.1039 1.95511 24.2965C1.14764 23.4892 0.692324 22.3952 0.688965 21.2535V4.99744C0.691552 3.85547 1.14652 2.76096 1.95416 1.95346C2.76179 1.14596 3.85648 0.691307 4.99865 0.688721H21.2524C22.3945 0.691822 23.4887 1.14655 24.2962 1.95394C25.1037 2.76133 25.5588 3.85562 25.5619 4.99744V21.2535C25.557 22.3948 25.1014 23.4876 24.2943 24.2946C23.4872 25.1016 22.3939 25.5573 21.2524 25.5622H21.2572Z" fill="#B8B8B8"/>
</svg>
