<svg width="105" height="72" viewBox="0 0 105 72" fill="none" xmlns="http://www.w3.org/2000/svg">
<path d="M101.149 40.2925V24.1141C101.149 22.5623 99.9009 21.3045 98.3607 21.3045H50.5746C49.0345 21.3045 47.7861 22.5623 47.7861 24.1141C47.7861 25.6658 49.0345 26.9236 50.5746 26.9236H84.8146L50.5746 41.7557L9.84862 24.1141L50.5746 6.4724L68.855 14.391C70.2699 15.0038 71.9098 14.3451 72.5181 12.9195C73.1261 11.4941 72.4723 9.84149 71.0576 9.22872L51.6759 0.832909C50.9728 0.528353 50.1763 0.528353 49.4731 0.832909L1.68714 21.5329C0.663508 21.9764 0 22.9914 0 24.1141C0 25.2368 0.663508 26.2518 1.68714 26.6952L49.4733 47.3949C49.8248 47.5472 50.1998 47.6233 50.5746 47.6233C50.9493 47.6233 51.3244 47.5472 51.6759 47.3949L77.9764 36.002L77.977 55.4435C62.6294 69.7506 38.5193 69.7506 23.1722 55.4433L23.1723 50.4842C23.1723 48.9324 21.9239 47.6745 20.3839 47.6745C18.844 47.6745 17.5955 48.9324 17.5955 50.4839L17.5953 56.6471C17.5953 57.4019 17.8969 58.1251 18.432 58.6535C27.0653 67.179 38.4803 71.8742 50.5744 71.8742C62.6687 71.8742 74.0839 67.179 82.717 58.6538C83.2521 58.1253 83.5538 57.4021 83.5538 56.6471L83.5533 33.5863L95.5721 28.3799V40.2923C93.3005 41.356 91.7209 43.6759 91.7209 46.3616C91.7209 49.1177 93.7625 56.3691 98.3606 56.3691C102.959 56.3691 105 49.1177 105 46.3616C105 43.676 103.421 41.3563 101.149 40.2925ZM98.3607 49.9904C97.8191 48.9181 97.2979 47.2613 97.2979 46.3617C97.2979 45.7713 97.7747 45.2908 98.3607 45.2908C98.9467 45.2908 99.4232 45.7713 99.4232 46.3617C99.4232 47.2613 98.902 48.9181 98.3607 49.9904Z" fill="#2BA0AF"/>
</svg>
