<svg width="73" height="75" viewBox="0 0 73 75" fill="none" xmlns="http://www.w3.org/2000/svg">
<path d="M2 50.5613C2.31214 43.5156 5.75002 37.2517 12.7732 33.1016C16.9958 30.6055 21.6085 29.7936 26.477 30.4294C27.0363 30.5024 27.5955 30.6055 28.1461 30.7301C29.1085 30.9449 29.6591 31.8214 29.451 32.7708C29.2603 33.6472 28.3455 34.2143 27.4178 34.0253C22.4929 33.02 17.8801 33.8105 13.6619 36.5214C9.64311 39.1034 6.99858 42.7337 5.95378 47.3606C4.43209 54.0885 6.24858 59.9184 11.2602 64.7C13.7833 67.1059 16.844 68.5623 20.2862 69.1766C28.7184 70.6889 36.9988 66.1994 40.2632 58.3417C41.6549 54.9864 41.98 51.5194 41.2603 47.9578C41.191 47.6227 41.1606 47.2575 41.2213 46.9267C41.3644 46.1534 42.0537 45.625 42.8471 45.6164C43.6361 45.6078 44.3341 46.1276 44.5118 46.8924C44.9887 48.9459 45.1448 51.0296 44.9757 53.1304C44.6115 57.6328 42.9988 61.654 40.0855 65.1297C37.0161 68.7986 33.1143 71.1744 28.4409 72.2828C25.3542 73.0131 22.2414 73.0905 19.1461 72.3859C11.4032 70.6245 6.10985 66.0318 3.27457 58.6897C2.3815 56.3998 2.02168 53.994 2 50.5613Z" fill="#2BA0AF" stroke="#2BA0AF" stroke-width="3" stroke-miterlimit="10"/>
<path d="M70.9998 52.1808C70.8264 58.2169 68.2729 63.7633 63.0835 68.038C59.7974 70.7446 55.9823 72.274 51.7381 72.7423C49.4187 72.9958 47.1167 72.854 44.8363 72.3599C43.9693 72.1709 43.423 71.3718 43.5314 70.4825C43.6354 69.6275 44.3724 68.9831 45.2612 69.039C45.8421 69.0733 46.4187 69.2237 46.9996 69.301C50.7583 69.808 54.3393 69.228 57.7121 67.5095C61.9173 65.3657 64.8393 62.0663 66.4867 57.6756C67.5792 54.7628 67.861 51.7554 67.3408 48.688C66.5257 43.8634 64.1153 39.9882 60.1572 37.0754C57.7945 35.3354 55.137 34.2657 52.2236 33.8318C48.543 33.2819 45.0141 33.7888 41.6629 35.3913C37.6528 37.3117 34.7438 40.3061 32.923 44.3273C31.7741 46.8664 31.2625 49.5429 31.4099 52.3225C31.4663 53.3622 31.6527 54.3976 31.8175 55.4287C31.9692 56.391 31.4143 57.246 30.4605 57.4436C29.5804 57.624 28.6961 57.0569 28.488 56.1418C27.933 53.7059 27.829 51.2485 28.1628 48.7696C28.618 45.3627 29.8189 42.2437 31.8001 39.4297C34.7134 35.2882 38.6282 32.5085 43.5141 31.0822C46.7092 30.1499 49.9606 29.9609 53.2338 30.5753C60.1095 31.8684 65.2208 35.5975 68.5503 41.6938C70.2107 44.757 70.9651 48.0736 70.9998 52.1808Z" fill="#2BA0AF" stroke="#2BA0AF" stroke-width="3" stroke-miterlimit="10"/>
<path d="M37.5313 4.41566C38.2119 3.89153 38.7929 3.35021 39.4605 2.94637C42.4822 1.1076 45.5386 1.16345 48.4649 3.08385C51.8334 5.29638 53.1383 8.50992 52.6181 12.4495C52.2409 15.2979 50.8753 17.708 49.0631 19.8819C46.5964 22.8463 43.605 25.1834 40.1585 26.9491C39.894 27.0866 39.6166 27.194 39.3434 27.3186C38.1296 27.8943 36.9417 27.8084 35.7365 27.2542C33.235 26.1071 31.011 24.5562 28.9604 22.7518C27.0746 21.0891 25.4315 19.2246 24.2046 17.025C22.9387 14.7523 22.2798 12.3421 22.5615 9.72145C22.9691 5.88925 26.0601 2.51675 29.8795 1.7907C32.6714 1.26227 35.0472 2.13439 37.1194 3.97316C37.2798 4.11063 37.4099 4.28248 37.5313 4.41566ZM25.9084 10.9072C25.9301 11.2251 25.9344 11.543 25.9777 11.8566C26.1772 13.4291 26.7884 14.8554 27.6685 16.1614C30.0139 19.637 33.1787 22.1718 36.907 24.0707C37.4272 24.3371 37.8694 24.3027 38.381 24.0492C41.6021 22.4424 44.3637 20.2729 46.6224 17.4889C47.975 15.8177 49.0025 13.979 49.2712 11.8094C49.514 9.82885 49.0328 8.05453 47.5545 6.64968C45.5082 4.7121 43.0241 4.43714 40.8131 6.11695C40.0848 6.67116 39.5689 7.38432 39.2047 8.21349C38.9359 8.82354 38.472 9.19301 37.7957 9.26175C37.0327 9.33908 36.3954 8.97821 36.066 8.26504C35.7495 7.57336 35.355 6.93752 34.787 6.42198C33.7162 5.45534 32.4633 4.86676 31.0067 5.03431C28.0587 5.3823 25.9127 7.90846 25.9084 10.9072Z" fill="#2BA0AF" stroke="#2BA0AF" stroke-width="3" stroke-miterlimit="10"/>
</svg>
